<svg width="30" height="30" xmlns="http://www.w3.org/2000/svg">

 <g>
  <title>background</title>
  <rect fill="none" id="canvas_background" height="402" width="582" y="-1" x="-1"/>
 </g>
 <g>
  <title>Layer 1</title>
  <path id="svg_1" fill="#7f3f00" d="m22.525581,17.827c-0.888,3.460001 -4.028,6.017 -7.766002,6.017c-3.753,0 -6.901999,-2.579 -7.775,-6.059999l-0.241,0.018999c-1.377,0 -2.494,-0.885 -2.494,-1.974999c0,-1.09 1.117,-1.974 2.494,-1.974l0.253,-0.032001c0.891,-3.455999 4.028,-6.008999 7.761999,-6.008999c3.736002,0 6.874001,2.553999 7.764002,6.012l0.139999,0.029c1.378,0 2.495001,0.884 2.495001,1.974c0,1.089999 -1.117001,1.974999 -2.495001,1.974999l-0.136999,0.024z"/>
  <circle fill="#ffffff" id="svg_2" r="1.286" cy="13.471" cx="12.194"/>
  <circle fill="#ffffff" id="svg_3" r="1.287" cy="13.471" cx="17.141"/>
  <path id="svg_4" fill="#960606" d="m20.851521,16.046c0,3.223425 -2.649963,5.83742 -5.918217,5.83742c-3.272341,0 -5.922304,-2.613995 -5.922304,-5.83742l11.840521,0z"/>
  <rect id="svg_6" fill="#000000" y="11.832303" x="13.613982" width="1" transform="rotate(-134.883, 11.4927, 11.4198) matrix(1.19625, 0.214572, -0.358538, 0.715914, -0.306794, -1.7609)" height="4.697"/>
  <rect id="svg_8" fill="#000000" y="8.955519" x="18.228385" width="1" transform="rotate(94.4649, 17.8513, 11.206) matrix(0.935291, 0.288995, -0.279162, 0.968235, 3.29281, -4.4658)" height="3.281"/>
  <polygon id="svg_9" fill="#FFFFFF" points="17.141,16.969 12.194,16.969 12.194,16.046 17.167,16.046  "/>
  <circle fill="#000000" id="svg_10" r="0.67091" cy="13.704309" cx="12.25763"/>
  <circle fill="#000000" id="svg_11" r="0.67091" cy="13.704309" cx="17.093502"/>
  <rect id="svg_12" fill="#000000" y="11.832303" x="13.613982" width="1" transform="rotate(-134.883, 11.4927, 11.4198) matrix(1.19625, 0.214572, -0.358538, 0.715914, -0.306794, -1.7609)" height="4.697"/>
  <rect id="svg_13" fill="#000000" y="4.942101" x="15.449545" width="1" transform="rotate(-0.867011, 16.1589, 6.88087) matrix(1.19625, 0.214572, -0.358538, 0.715914, -0.306794, -1.7609)" height="4.697"/>
  <rect id="svg_14" fill="#000000" y="4.942101" x="15.449545" width="1" transform="rotate(-0.867011, 16.1589, 6.88087) matrix(1.19625, 0.214572, -0.358538, 0.715914, -0.306794, -1.7609)" height="4.697"/>
  <rect id="svg_15" fill="#000000" y="5.56356" x="13.969152" width="1" transform="rotate(-176.765, 14.1652, 7.00813) matrix(1.19625, 0.214572, -0.358538, 0.715914, -0.306794, -1.7609)" height="4.697"/>
 </g>
</svg>