<?xml version="1.0" encoding="UTF-8"?>
<svg width="200px" height="60px" viewBox="0 0 200 60" version="1.1" xmlns="http://www.w3.org/2000/svg" xmlns:xlink="http://www.w3.org/1999/xlink">
    <!-- Generator: Sketch 44.1 (41455) - http://www.bohemiancoding.com/sketch -->
    <title>section2_icon_googleplay</title>
    <desc>Created with Sketch.</desc>
    <defs>
        <linearGradient x1="91.683%" y1="37.8903771%" x2="-38.413%" y2="55.8262347%" id="linearGradient-1">
            <stop stop-color="#00A1FF" offset="0%"/>
            <stop stop-color="#00BEFF" offset="26.01%"/>
            <stop stop-color="#00D2FF" offset="51.22%"/>
            <stop stop-color="#00DFFF" offset="76.04%"/>
            <stop stop-color="#00E3FF" offset="100%"/>
        </linearGradient>
        <linearGradient x1="107.998%" y1="49.535%" x2="-130.395%" y2="49.535%" id="linearGradient-2">
            <stop stop-color="#FFE000" offset="0%"/>
            <stop stop-color="#FFBD00" offset="40.87%"/>
            <stop stop-color="#FFA500" offset="77.54%"/>
            <stop stop-color="#FF9C00" offset="100%"/>
        </linearGradient>
        <linearGradient x1="71.5524766%" y1="17.638%" x2="-9.46313628%" y2="195.596%" id="linearGradient-3">
            <stop stop-color="#FF3A44" offset="0%"/>
            <stop stop-color="#C31162" offset="100%"/>
        </linearGradient>
        <linearGradient x1="9.14800461%" y1="-53.645%" x2="45.3266754%" y2="24.959%" id="linearGradient-4">
            <stop stop-color="#32A071" offset="0%"/>
            <stop stop-color="#2DA771" offset="6.85%"/>
            <stop stop-color="#15CF74" offset="47.62%"/>
            <stop stop-color="#06E775" offset="80.09%"/>
            <stop stop-color="#00F076" offset="100%"/>
        </linearGradient>
    </defs>
    <g id="website" stroke="none" stroke-width="1" fill="none" fill-rule="evenodd">
        <g id="Home" transform="translate(-630.000000, -800.000000)" fill-rule="nonzero">
            <g id="section2_icon_googleplay" transform="translate(630.000000, 800.000000)">
                <rect id="Rectangle-path" fill="#000000" x="0" y="0" width="200" height="60" rx="8"/>
                <path d="M160.1,46.25 L162.907,46.25 L162.907,27.498 L160.1,27.498 L160.1,46.25 Z M185.374,34.253 L182.156,42.383 L182.06,42.383 L178.723,34.253 L175.7,34.253 L180.706,45.616 L177.854,51.936 L180.78,51.936 L188.494,34.253 L185.375,34.253 L185.374,34.253 Z M169.46,44.12 C168.541,44.12 167.259,43.663 167.259,42.527 C167.259,41.081 168.856,40.526 170.235,40.526 C171.468,40.526 172.048,40.791 172.797,41.153 C172.582207,42.8368389 171.157405,44.1036623 169.46,44.12 L169.46,44.12 Z M169.798,33.844 C167.767,33.844 165.663,34.736 164.792,36.714 L167.282,37.751 C167.815,36.715 168.808,36.376 169.847,36.376 C171.297,36.376 172.773,37.244 172.797,38.789 L172.797,38.981 C172.289,38.691 171.202,38.258 169.871,38.258 C167.186,38.258 164.454,39.73 164.454,42.479 C164.454,44.989 166.654,46.606 169.122,46.606 C171.008,46.606 172.048,45.761 172.701,44.771 L172.797,44.771 L172.797,46.218 L175.507,46.218 L175.507,39.03 C175.507,35.701 173.015,33.844 169.798,33.844 L169.798,33.844 Z M152.458,36.536 L148.468,36.536 L148.468,30.109 L152.458,30.109 C154.555,30.109 155.748,31.841 155.748,33.322 C155.748,34.775 154.555,36.536 152.458,36.536 Z M152.385,27.499 L145.662,27.499 L145.662,46.25 L148.468,46.25 L148.468,39.146 L152.385,39.146 C155.495,39.146 158.552,36.899 158.552,33.322 C158.552,29.744 155.495,27.499 152.385,27.499 L152.385,27.499 Z M115.722,44.123 C113.783,44.123 112.161,42.505 112.161,40.282 C112.161,38.035 113.783,36.391 115.721,36.391 C117.636,36.391 119.138,38.035 119.138,40.281 C119.138,42.505 117.636,44.123 115.722,44.123 L115.722,44.123 Z M118.944,35.303 L118.847,35.303 C118.217,34.555 117.006,33.878 115.48,33.878 C112.281,33.878 109.35,36.68 109.35,40.281 C109.35,43.858 112.281,46.637 115.48,46.637 C117.006,46.637 118.217,45.96 118.847,45.187 L118.944,45.187 L118.944,46.106 C118.944,48.546 117.636,49.851 115.528,49.851 C113.808,49.851 112.741,48.618 112.307,47.579 L109.859,48.594 C110.561,50.286 112.427,52.364 115.528,52.364 C118.823,52.364 121.609,50.43 121.609,45.719 L121.609,34.263 L118.944,34.263 L118.944,35.303 L118.944,35.303 Z M123.547,46.25 L126.357,46.25 L126.357,27.497 L123.547,27.497 L123.547,46.25 L123.547,46.25 Z M130.501,40.064 C130.427,37.6 132.414,36.342 133.844,36.342 C134.958,36.342 135.902,36.898 136.218,37.696 L130.501,40.064 L130.501,40.064 Z M139.221,37.937 C138.689,36.512 137.065,33.878 133.746,33.878 C130.451,33.878 127.714,36.463 127.714,40.258 C127.714,43.833 130.427,46.637 134.062,46.637 C136.992,46.637 138.689,44.849 139.391,43.809 L137.211,42.359 C136.484,43.422 135.491,44.123 134.061,44.123 C132.631,44.123 131.614,43.471 130.961,42.191 L139.513,38.661 L139.221,37.937 Z M71.09,35.836 L71.09,38.541 L77.583,38.541 C77.389,40.064 76.879,41.176 76.105,41.948 C75.159,42.892 73.682,43.931 71.09,43.931 C67.093,43.931 63.968,40.716 63.968,36.729 C63.968,32.741 67.093,29.528 71.09,29.528 C73.246,29.528 74.82,30.374 75.983,31.461 L77.897,29.552 C76.275,28.005 74.118,26.82 71.09,26.82 C65.615,26.82 61.012,31.268 61.012,36.73 C61.012,42.191 65.615,46.637 71.09,46.637 C74.045,46.637 76.275,45.669 78.019,43.857 C79.812,42.069 80.368,39.557 80.368,37.526 C80.3742173,36.9593556 80.3259959,36.3934239 80.224,35.836 L71.09,35.836 L71.09,35.836 Z M87.75,44.123 C85.812,44.123 84.14,42.528 84.14,40.257 C84.14,37.961 85.812,36.39 87.75,36.39 C89.688,36.39 91.359,37.961 91.359,40.257 C91.359,42.528 89.689,44.123 87.749,44.123 L87.75,44.123 Z M87.75,33.878 C84.213,33.878 81.329,36.56 81.329,40.258 C81.329,43.931 84.213,46.637 87.749,46.637 C91.287,46.637 94.169,43.931 94.169,40.257 C94.169,36.56 91.287,33.878 87.749,33.878 L87.75,33.878 Z M101.754,44.123 C99.816,44.123 98.145,42.529 98.145,40.258 C98.145,37.961 99.816,36.391 101.755,36.391 C103.693,36.391 105.363,37.961 105.363,40.258 C105.363,42.528 103.693,44.123 101.754,44.123 L101.754,44.123 Z M101.754,33.878 C98.218,33.878 95.334,36.56 95.334,40.258 C95.334,43.931 98.218,46.637 101.754,46.637 C105.291,46.637 108.174,43.931 108.174,40.257 C108.174,36.56 105.291,33.878 101.754,33.878 Z M119.053,11.208 L119.053,16.794 L119.089,18.098 L114.844,11.208 L113.178,11.208 L113.178,20.791 L114.655,20.791 L114.655,14.855 L114.62,13.552 L119.07,20.791 L120.534,20.791 L120.534,11.208 L119.053,11.208 Z M110.327,16 C110.327,17.03 110,17.89 109.353,18.553 C108.735942,19.2033462 107.874373,19.565024 106.978,19.55 C106.08103,19.5650931 105.218817,19.2034495 104.601,18.553 C103.956,17.89 103.628,17.03 103.628,15.999 C103.628,14.969 103.956,14.109 104.601,13.446 C105.246,12.784 106.045,12.45 106.978,12.45 C107.911,12.45 108.71,12.784 109.353,13.446 C110,14.109 110.327,14.968 110.327,15.999 L110.327,16 Z M106.977,11.001 C105.603,11.001 104.439,11.489 103.515,12.453 C102.593,13.415 102.125,14.607 102.125,15.999 C102.125,17.392 102.593,18.585 103.515,19.545 C104.438,20.51 105.603,20.996 106.978,20.996 C108.351,20.996 109.518,20.51 110.44,19.545 C111.364,18.584 111.83,17.39 111.83,15.999 C111.83,14.616 111.363,13.426 110.434,12.459 C109.506,11.491 108.342,11.001 106.978,11.001 L106.977,11.001 Z M91.994,12.657 L94.549,12.657 L94.549,20.79 L96.028,20.79 L96.028,12.657 L98.583,12.657 L98.583,11.208 L91.993,11.208 L91.994,12.657 Z M89.336,20.79 L90.816,20.79 L90.816,11.207 L89.336,11.207 L89.336,20.79 Z M78.502,12.657 L81.057,12.657 L81.057,20.79 L82.537,20.79 L82.537,12.657 L85.092,12.657 L85.092,11.208 L78.502,11.208 L78.502,12.657 Z M71.936,20.79 L77.581,20.79 L77.581,19.342 L73.416,19.342 L73.416,16.712 L77.173,16.712 L77.173,15.288 L73.416,15.288 L73.416,12.657 L77.581,12.657 L77.581,11.207 L71.936,11.207 L71.936,20.79 Z M70.465,15.52 L65.752,15.52 L65.752,16.944 L69.057,16.944 C68.972,17.626 68.736,18.168 68.352,18.56 C67.702,19.216 66.879,19.549 65.905,19.549 C64.987,19.549 64.182,19.218 63.513,18.563 C62.843,17.909 62.505,17.046 62.505,16 C62.505,14.952 62.843,14.09 63.513,13.436 C64.182,12.782 64.987,12.449 65.905,12.449 C66.931,12.449 67.711,12.791 68.292,13.494 L68.4,13.624 L69.419,12.589 L69.33,12.48 C68.96,12.034 68.46,11.67 67.842,11.402 C67.2309144,11.1360136 66.5714635,10.9991528 65.905,11 C64.549,11 63.38,11.483 62.432,12.437 C61.482,13.391 61,14.59 61,16 C61,17.41 61.482,18.607 62.432,19.561 C63.38,20.513 64.548,20.997 65.905,20.997 C67.321,20.997 68.489,20.519 69.373,19.58 C70.157,18.784 70.555,17.706 70.555,16.375 C70.555,16.141 70.532,15.895 70.488,15.649 L70.465,15.521 L70.465,15.52 Z" id="Shape" fill="#FFFFFF"/>
                <g id="Group-27" transform="translate(13.000000, 12.000000)">
                    <path d="M1.23,1.097 C0.794,1.557 0.534,2.274 0.534,3.204 L0.534,36.377 C0.534,37.307 0.793,38.022 1.23,38.484 L1.34,38.592 L19.972,20.01 L19.972,19.571 L1.34,0.987 L1.23,1.097 Z" id="Shape" fill="url(#linearGradient-1)"/>
                    <path d="M19.972,19.57 L19.972,20.011 L26.181,26.207 L26.323,26.127 L33.68,21.956 C35.782,20.766 35.782,18.816 33.68,17.626 L26.323,13.456 L26.183,13.376 L19.972,19.571 L19.972,19.57 Z" id="Shape" fill="url(#linearGradient-2)"/>
                    <path d="M1.23,38.484 C1.922,39.216 3.066,39.306 4.355,38.577 L26.323,26.127 L19.972,19.791 L1.23,38.484 Z" id="Shape" fill="url(#linearGradient-3)"/>
                    <path d="M1.23,1.097 L19.972,19.79 L26.323,13.453 L4.355,1.004 C3.751,0.662 3.178,0.5 2.669,0.5 C2.094,0.5 1.597,0.708 1.23,1.097" id="Shape" fill="url(#linearGradient-4)"/>
                </g>
            </g>
        </g>
    </g>
</svg>